<svg width="32" height="32" viewBox="0 0 32 32" fill="none" xmlns="http://www.w3.org/2000/svg">
<g transform="translate(2 2) scale(0.72)"><path fill-rule="evenodd" clip-rule="evenodd" d="M11.000,16.000 a5.000,5.000 0 1,0 10.000,0 a5.000,5.000 0 1,0 -10.000,0 Z M24.000,17.000 L27.500,17.000 L27.500,15.000 L24.000,15.000 Z M20.950,22.364 L23.425,24.839 L24.839,23.425 L22.364,20.950 Z M15.000,24.000 L15.000,27.500 L17.000,27.500 L17.000,24.000 Z M9.636,20.950 L7.161,23.425 L8.575,24.839 L11.050,22.364 Z M8.000,15.000 L4.500,15.000 L4.500,17.000 L8.000,17.000 Z M11.050,9.636 L8.575,7.161 L7.161,8.575 L9.636,11.050 Z M17.000,8.000 L17.000,4.500 L15.000,4.500 L15.000,8.000 Z M22.364,11.050 L24.839,8.575 L23.425,7.161 L20.950,9.636 Z" fill="#001C2F"/></g>
<path fill-rule="evenodd" clip-rule="evenodd" d="M30.138,26.552 A6,6 0 1,1 27.500,19.304 L26.500,21.036 A4,4 0 1,0 28.259,25.868 Z M25.900,22.075 L25.263,14.779 L32.537,18.979 Z M23.000,24.500 a1.500,1.500 0 1,0 3.000,0 a1.500,1.500 0 1,0 -3.000,0 Z" fill="#001C2F"/>
</svg>
