<svg width="32" height="32" viewBox="0 0 32 32" fill="none" xmlns="http://www.w3.org/2000/svg">
<g transform="translate(2 2) scale(0.72)"><path fill-rule="evenodd" clip-rule="evenodd" d="M16.0,4 h0.0 a2.5,2.5 0 0,1 2.5,2.5 v10.0 a2.5,2.5 0 0,1 -2.5,2.5 h-0.0 a2.5,2.5 0 0,1 -2.5,-2.5 v-10.0 a2.5,2.5 0 0,1 2.5,-2.5 Z M15.2,7 h1.6 v10 h-1.6 Z M10.500,22.000 a5.500,5.500 0 1,0 11.000,0 a5.500,5.500 0 1,0 -11.000,0 Z M12.800,22.000 a3.200,3.200 0 1,0 6.400,0 a3.200,3.200 0 1,0 -6.400,0 Z M15.2,14 h1.6 v6 h-1.6 Z" fill="#001C2F"/></g>
<path fill-rule="evenodd" clip-rule="evenodd" d="M30.138,26.552 A6,6 0 1,1 27.500,19.304 L26.500,21.036 A4,4 0 1,0 28.259,25.868 Z M25.900,22.075 L25.263,14.779 L32.537,18.979 Z M23.000,24.500 a1.500,1.500 0 1,0 3.000,0 a1.500,1.500 0 1,0 -3.000,0 Z" fill="#001C2F"/>
</svg>
